<svg width="3341" height="756" viewBox="0 0 3341 756" fill="none" xmlns="http://www.w3.org/2000/svg">
<path d="M713.161 367.041C713.161 558.156 558.215 713.089 367.078 713.089C175.942 713.089 20.9961 558.156 20.9961 367.041C20.9961 175.923 175.942 20.9922 367.078 20.9922C558.215 20.9922 713.161 175.923 713.161 367.041ZM79.8303 367.041C79.8303 525.668 208.436 654.26 367.078 654.26C525.722 654.26 654.326 525.668 654.326 367.041C654.326 208.414 525.722 79.8204 367.078 79.8204C208.436 79.8204 79.8303 208.414 79.8303 367.041Z" fill="#25AFE1"/>
<path d="M581.359 133.994C592.356 122.033 591.64 103.314 578.787 93.3759C532.673 57.7173 478.154 34.1824 420.235 25.1806C352.596 14.6684 283.363 24.4467 221.284 53.2793C159.206 82.1118 107.072 128.703 71.4758 187.162C35.8798 245.62 18.4196 313.323 21.3035 381.704C24.1875 450.083 47.2859 516.072 87.6779 571.329C128.07 626.583 183.942 668.62 248.228 692.126C312.514 715.629 382.325 719.544 448.838 703.376C505.791 689.529 558.137 661.489 601.086 622.076C613.057 611.091 612.192 592.378 600.229 581.386C588.266 570.39 569.751 571.308 557.589 582.083C522.656 613.039 480.581 635.116 434.939 646.213C379.732 659.634 321.789 656.382 268.434 636.876C215.074 617.367 168.702 582.476 135.176 536.614C101.651 490.751 82.4788 435.98 80.0853 379.225C77.6915 322.467 92.1836 266.277 121.728 217.755C151.273 169.235 194.545 130.563 246.068 106.633C297.595 82.7017 355.061 74.5856 411.196 83.3107C457.613 90.5247 501.397 108.984 538.816 136.889C551.839 146.601 570.367 145.955 581.359 133.994Z" fill="white"/>
<path d="M535.278 232.738C529.93 226.621 522.395 222.895 514.321 222.372C506.248 221.849 498.298 224.574 492.222 229.95C466.93 252.44 422.705 320.535 394.906 394.172C388.486 411.189 382.853 428.644 378.398 446.116C357.383 413.187 339.81 393.417 318.641 369.554C304.075 353.155 287.662 334.661 266.518 307.331C264.07 304.14 261.022 301.463 257.547 299.458C254.073 297.454 250.241 296.161 246.267 295.648C242.295 295.136 238.264 295.417 234.401 296.475C230.536 297.536 226.918 299.349 223.75 301.816C217.353 306.802 213.184 314.141 212.159 322.219C211.137 330.301 213.339 338.456 218.287 344.901C240.313 373.381 257.694 392.959 273.113 410.332C305.157 446.406 328.083 472.254 372.121 560.888C377.363 573.969 391.087 582.124 405.475 579.708C413.467 578.367 420.601 573.883 425.31 567.243C430.022 560.605 431.922 552.355 430.595 544.306C424.54 507.677 435.104 460.752 451.994 416.015C476.461 351.234 512.692 293.704 532.504 276.077C538.58 270.701 542.284 263.114 542.802 254.986C543.323 246.858 540.617 238.855 535.278 232.738Z" fill="white"/>
<path d="M335.433 190.412C326.686 192.571 329.065 203.411 336.256 199.815C336.384 199.815 378.005 185.729 405.284 229.377C408.634 234.739 413.115 227.799 411.297 223.991C405.555 211.951 380.781 179.212 335.433 190.412ZM315.654 280.689C310.493 247.307 324.385 225.179 341.664 220.695C382.801 210.014 403.151 261.08 403.151 287.942C403.151 314.153 384.577 325.697 371.338 324.528C349.092 322.559 338.618 299.129 335.384 280.882C334.595 276.436 328.467 242.214 355.936 242.006C374.64 241.868 385.156 274.471 383.93 287.033C383.128 295.243 379.303 303.817 370.645 303.05C359.102 302.032 354.87 285.326 354.286 278.726C354.158 277.677 351.794 264.733 358.082 265.829C362.415 266.582 363.477 274.708 363.626 275.242C364.229 277.192 364.64 279.64 364.888 281.903C365.153 283.821 364.72 286.023 365.486 288.16C366.24 290.64 368.396 292.036 370.263 292.202C371.791 292.336 374.707 290.764 374.806 288.358C375.003 275.565 369.685 252.803 354.697 254.142C346.268 254.894 341.824 264.611 344.223 280.276C346.562 295.531 354.452 312.306 370.044 313.683C387.186 315.201 394.089 299.461 394.089 287.598C394.089 253.777 371.378 222.737 344.534 232.029C329.118 237.365 319.765 254.264 325.03 281.825C330.484 310.398 347.274 336.615 371.632 335.904C416.224 334.602 413.125 286.773 413.125 286.773C413.125 242.823 377.764 191.972 332.414 211.773C313.72 219.937 299.098 247.467 304.617 281.052C318.62 366.255 379.765 356.468 382.622 356.023L382.834 356.05C392.592 354.627 390.596 343.671 383.458 344.901C342.972 351.883 321.117 316.041 315.654 280.689Z" fill="white"/>
<path d="M1075.06 206.699C1033.11 206.699 998.279 221.691 970.569 251.675C942.86 281.66 929.005 320.101 929.005 367C929.005 413.899 942.86 452.34 970.569 482.325C998.279 512.309 1033.11 527.301 1075.06 527.301C1098.92 527.301 1119.31 524.802 1136.25 519.805C1153.18 514.808 1173.77 505.773 1198.02 492.704L1203.79 498.47V560.745C1161.84 579.581 1118.93 589 1075.06 589C1014.64 589 963.258 568.242 920.923 526.725C878.975 485.208 858 431.966 858 367C858 302.034 878.975 248.792 920.923 207.275C963.258 165.758 1014.64 145 1075.06 145C1120.08 145 1163 154.418 1203.79 173.255V235.53L1198.02 241.296C1173.77 228.227 1153.18 219.192 1136.25 214.195C1119.31 209.197 1098.92 206.699 1075.06 206.699ZM1459.05 369.307C1471.75 377.379 1485.6 393.332 1500.61 417.166C1516 440.615 1532.94 469.446 1551.41 503.66C1569.88 537.873 1583.93 562.475 1593.55 577.468V583.234H1519.66C1511.19 569.779 1497.72 545.177 1479.25 509.426C1461.16 473.675 1444.81 445.037 1430.18 423.509C1415.94 401.981 1402.67 390.065 1390.35 387.758H1347.63V577.468L1341.86 583.234H1285.86L1280.09 577.468V156.532L1285.86 150.766H1400.74C1443.46 150.766 1477.52 161.722 1502.92 183.634C1528.32 205.161 1541.02 233.8 1541.02 269.551C1541.02 294.153 1533.71 315.104 1519.08 332.403C1504.84 349.317 1484.83 361.618 1459.05 369.307ZM1347.63 329.519H1398.43C1420.75 329.519 1438.26 324.137 1450.96 313.374C1463.66 302.225 1470.02 287.619 1470.02 269.551C1470.02 251.099 1463.66 236.49 1450.96 225.727C1438.26 214.579 1420.75 209.005 1398.43 209.005H1347.63V329.519ZM1884.58 530.761V577.468L1878.81 583.234H1643.28L1637.51 577.468V156.532L1643.28 150.766H1867.26L1873.04 156.532V203.239L1867.26 209.005H1705.05V330.673H1844.17L1849.95 336.439V383.145L1844.17 388.912H1705.05V524.995H1878.81L1884.58 530.761ZM1955.03 150.766H2096.46C2156.9 150.766 2208.08 170.756 2250.02 210.735C2292.36 250.715 2313.52 302.802 2313.52 367C2313.52 431.198 2292.36 483.285 2250.02 523.265C2208.08 563.245 2156.9 583.234 2096.46 583.234H1955.03L1949.26 577.468V156.532L1955.03 150.766ZM2016.8 524.995H2096.46C2138.8 524.995 2173.64 510.386 2200.95 481.171C2228.66 451.571 2242.51 413.514 2242.51 367C2242.51 320.486 2228.66 282.62 2200.95 253.405C2173.64 223.805 2138.8 209.005 2096.46 209.005H2016.8V524.995ZM2625.36 530.761V577.468L2619.58 583.234H2384.06L2378.28 577.468V156.532L2384.06 150.766H2608.04L2613.81 156.532V203.239L2608.04 209.005H2445.82V330.673H2584.95L2590.72 336.439V383.145L2584.95 388.912H2445.82V524.995H2619.58L2625.36 530.761ZM2898.43 354.891C2952.69 372.573 2979.82 407.364 2979.82 459.26C2979.82 501.546 2965.77 532.875 2937.68 553.249C2909.97 573.238 2873.03 583.234 2826.85 583.234H2695.8L2690.03 577.468V156.532L2695.8 150.766H2810.68C2852.63 150.766 2886.49 161.145 2912.28 181.904C2938.06 202.662 2950.96 230.724 2950.96 266.091C2950.96 307.992 2933.44 337.592 2898.43 354.891ZM2880.53 268.397C2880.53 250.329 2874.18 235.914 2861.48 225.151C2848.78 214.387 2831.46 209.005 2809.53 209.005H2757.57V330.673H2809.53C2831.84 330.673 2849.16 325.099 2861.48 313.951C2874.18 302.802 2880.53 287.619 2880.53 268.397ZM2757.57 524.995H2824.54C2881.11 524.995 2909.4 502.699 2909.4 458.107C2909.4 434.658 2901.32 417.359 2885.15 406.21C2869.37 394.678 2847.63 388.912 2819.92 388.912H2757.57V524.995ZM3279 530.761V577.468L3273.23 583.234H3050.4L3044.62 577.468V156.532L3050.4 150.766H3106.39L3112.17 156.532V524.995H3273.23L3279 530.761Z" fill="white"/>
</svg>
